<svg width="95" height="1024" fill="none" xmlns="http://www.w3.org/2000/svg"><g clip-path="url('#clip0_1_6')"><path fill="#2D2A2A" d="M0 0h95v1024H0z"/><path d="m46.17 89.044-8.003 6.59v7.114a.694.694 0 0 0 .695.694l4.863-.012a.696.696 0 0 0 .691-.695v-4.154a.695.695 0 0 1 .695-.694h2.778a.695.695 0 0 1 .694.694v4.151a.696.696 0 0 0 .695.697l4.861.013a.695.695 0 0 0 .695-.694V95.63l-8-6.586a.529.529 0 0 0-.665 0Zm12.64 4.48-3.629-2.991V84.52a.521.521 0 0 0-.52-.521H52.23a.521.521 0 0 0-.521.52v3.152l-3.886-3.197a2.083 2.083 0 0 0-2.647 0l-10.987 9.048a.522.522 0 0 0-.07.734l1.107 1.345a.522.522 0 0 0 .734.071l10.21-8.409a.529.529 0 0 1 .663 0l10.21 8.41a.52.52 0 0 0 .734-.07l1.106-1.346a.522.522 0 0 0-.073-.735Z" fill="#F77D0C"/><path d="M59.219 244.086c.012 6.672-5.429 12.128-12.1 12.133a12.063 12.063 0 0 1-7.61-2.681 1.172 1.172 0 0 1-.09-1.739l.551-.55a1.173 1.173 0 0 1 1.557-.097 8.949 8.949 0 0 0 5.582 1.942 8.98 8.98 0 0 0 8.985-8.985 8.98 8.98 0 0 0-8.985-8.984 8.953 8.953 0 0 0-6.155 2.438l2.478 2.478a.781.781 0 0 1-.553 1.334h-7.098a.781.781 0 0 1-.781-.781v-7.099a.781.781 0 0 1 1.334-.552l2.41 2.411A12.067 12.067 0 0 1 47.11 232c6.68 0 12.097 5.409 12.11 12.086Zm-8.834 3.847.48-.616a1.172 1.172 0 0 0-.206-1.645l-1.987-1.546v-5.095c0-.647-.525-1.172-1.172-1.172h-.781c-.648 0-1.172.525-1.172 1.172v6.624l3.194 2.484c.51.397 1.247.305 1.644-.206ZM41.944 444.444c-1.11 0-2.222-.972-2.777-1.388-2.778-1.945-3.611-2.639-4.167-3.056v5.833a1.39 1.39 0 0 0 1.389 1.389H47.5a1.39 1.39 0 0 0 1.389-1.389V440c-.556.417-1.389 1.111-4.167 3.056-.555.416-1.666 1.388-2.778 1.388Zm5.556-8.333H36.389A1.39 1.39 0 0 0 35 437.5v.694c1.111.834.972.834 5 3.75.417.278 1.25 1.112 1.944 1.112.695 0 1.528-.834 1.945-.973 4.028-2.916 3.889-2.916 5-3.75v-.833a1.39 1.39 0 0 0-1.389-1.389Zm11.111-4.167H44.722a1.39 1.39 0 0 0-1.389 1.389v1.389H47.5a2.782 2.782 0 0 1 2.765 2.51l.013-.01v5.834h8.333A1.39 1.39 0 0 0 60 441.667v-8.334a1.39 1.39 0 0 0-1.389-1.389Zm-1.389 5.556h-2.778v-2.778h2.778v2.778Zm-15.278-4.167a2.78 2.78 0 0 1 2.778-2.777h9.722v-4.167A1.39 1.39 0 0 0 53.056 425h-13.89a1.39 1.39 0 0 0-1.388 1.389v8.333h4.166v-1.389ZM57.694 628.023l-2.154-1.041a6.853 6.853 0 0 0 0-2.972l2.154-1.042c.247-.118.358-.364.277-.593-.56-1.507-1.516-2.87-2.764-4.005a.696.696 0 0 0-.748-.097l-2.154 1.041a10.115 10.115 0 0 0-3.073-1.486v-2.079c0-.237-.197-.444-.475-.495a15.125 15.125 0 0 0-5.52 0c-.278.051-.475.258-.475.495v2.083a10.45 10.45 0 0 0-3.073 1.487l-2.148-1.042a.687.687 0 0 0-.748.097c-1.248 1.131-2.204 2.494-2.765 4.006-.086.228.03.474.278.592l2.153 1.042a6.856 6.856 0 0 0 0 2.972l-2.153 1.042c-.248.118-.359.364-.278.592.561 1.508 1.517 2.871 2.765 4.006a.696.696 0 0 0 .748.097l2.153-1.042a10.14 10.14 0 0 0 3.073 1.487v2.083c0 .237.197.444.475.495 1.855.347 3.756.33 5.52 0 .278-.051.475-.258.475-.495v-2.083a10.451 10.451 0 0 0 3.073-1.487l2.154 1.042c.247.119.556.08.748-.097 1.248-1.131 2.203-2.494 2.764-4.006.076-.233-.035-.478-.282-.597Zm-11.697.86c-2.229 0-4.043-1.52-4.043-3.387s1.814-3.387 4.043-3.387c2.23 0 4.044 1.52 4.044 3.387s-1.815 3.387-4.044 3.387ZM45.5 826.22c1.971 0 3.57-1.243 3.57-2.778h-7.14c0 1.535 1.599 2.778 3.57 2.778Zm12.02-6.497c-1.079-.901-3.096-2.256-3.096-6.696 0-3.372-3.04-6.072-7.14-6.734v-.904c0-.767-.798-1.389-1.784-1.389s-1.785.622-1.785 1.389v.904c-4.099.662-7.14 3.362-7.14 6.734 0 4.44-2.016 5.795-3.095 6.696-.334.28-.483.614-.48.942.006.712.724 1.389 1.791 1.389H56.21c1.067 0 1.785-.677 1.791-1.389.003-.328-.146-.663-.48-.942ZM57.08 946.442H53.61v-14.518c0-1.184-.935-2.147-2.083-2.147h-4.861v2.778h4.166v16.665h6.25a.694.694 0 0 0 .694-.694v-1.389a.695.695 0 0 0-.694-.695Zm-13.53-19.398-8.332 2.158c-.618.161-1.052.736-1.052 1.397v15.843h-3.472a.694.694 0 0 0-.694.695v1.389c0 .383.31.694.694.694h14.582v-20.78c0-.937-.849-1.624-1.725-1.396Zm-2.093 12.455c-.575 0-1.041-.622-1.041-1.389s.466-1.389 1.041-1.389 1.042.622 1.042 1.389-.467 1.389-1.042 1.389Z" fill="#F67D0C"/><path stroke="#000" d="M87.001 178.5 1439 181.493"/></g><defs><clipPath id="clip0_1_6"><path fill="#fff" d="M0 0h95v1024H0z"/></clipPath></defs></svg>