<svg width="24" height="21" fill="none" xmlns="http://www.w3.org/2000/svg"><path d="m23.694 13.023-2.154-1.041a6.854 6.854 0 0 0 0-2.972l2.154-1.042c.247-.118.358-.364.277-.593-.56-1.507-1.516-2.87-2.764-4.005a.696.696 0 0 0-.748-.097l-2.154 1.041a10.12 10.12 0 0 0-3.073-1.486V.75c0-.237-.197-.444-.475-.495a15.116 15.116 0 0 0-5.52 0c-.278.05-.475.258-.475.495v2.083A10.441 10.441 0 0 0 5.69 4.32L3.541 3.277a.686.686 0 0 0-.748.097C1.544 4.504.589 5.868.028 7.38c-.086.228.03.474.278.592L2.46 9.014a6.856 6.856 0 0 0 0 2.972L.306 13.028c-.248.118-.359.364-.278.592.561 1.508 1.516 2.87 2.765 4.006a.696.696 0 0 0 .748.097l2.153-1.042a10.12 10.12 0 0 0 3.073 1.486v2.084c0 .237.198.444.476.495 1.854.347 3.755.33 5.52 0 .277-.05.474-.258.474-.495v-2.084a10.441 10.441 0 0 0 3.073-1.486l2.154 1.042c.247.119.556.08.748-.097 1.248-1.13 2.204-2.494 2.765-4.006.075-.232-.036-.478-.284-.597Zm-11.697.86c-2.229 0-4.043-1.52-4.043-3.387s1.814-3.387 4.043-3.387c2.23 0 4.044 1.52 4.044 3.387s-1.815 3.387-4.044 3.387Z" fill="#F67D0C"/></svg>