<svg width="25" height="23" fill="none" xmlns="http://www.w3.org/2000/svg"><path d="M6.944 19.444c-1.11 0-2.222-.972-2.777-1.388C1.389 16.11.556 15.416 0 15v5.833c0 .767.622 1.39 1.389 1.39H12.5a1.39 1.39 0 0 0 1.389-1.39V15c-.556.417-1.389 1.111-4.167 3.056-.555.416-1.666 1.388-2.778 1.388Zm5.556-8.333H1.389A1.39 1.39 0 0 0 0 12.5v.694c1.111.834.972.834 5 3.75.417.278 1.25 1.112 1.944 1.112.695 0 1.528-.834 1.945-.973 4.028-2.916 3.889-2.916 5-3.75V12.5a1.39 1.39 0 0 0-1.389-1.389Zm11.111-4.167H9.722a1.39 1.39 0 0 0-1.389 1.39v1.388H12.5a2.782 2.782 0 0 1 2.765 2.51l.013-.01v5.834h8.333A1.39 1.39 0 0 0 25 16.666V8.334a1.39 1.39 0 0 0-1.389-1.389ZM22.222 12.5h-2.778V9.722h2.778V12.5ZM6.944 8.333a2.78 2.78 0 0 1 2.778-2.777h9.722V1.389C19.444.622 18.823 0 18.056 0H4.166a1.39 1.39 0 0 0-1.388 1.389v8.333h4.166V8.333Z" fill="#F67D0C"/></svg>