<svg width="25" height="23" fill="none" xmlns="http://www.w3.org/2000/svg"><path d="M12.5 22.22c1.971 0 3.57-1.243 3.57-2.777H8.93c0 1.534 1.599 2.777 3.57 2.777Zm12.02-6.497c-1.079-.901-3.096-2.257-3.096-6.696 0-3.372-3.04-6.072-7.14-6.734V1.39C14.285.622 13.486 0 12.5 0c-.986 0-1.785.622-1.785 1.389v.904c-4.099.662-7.14 3.362-7.14 6.734 0 4.44-2.016 5.795-3.094 6.696-.335.28-.484.614-.481.942.006.712.724 1.389 1.791 1.389H23.21c1.067 0 1.785-.677 1.791-1.389.003-.328-.146-.663-.48-.942Z" fill="#F67D0C"/></svg>