<svg width="25" height="25" fill="none" xmlns="http://www.w3.org/2000/svg"><path d="M24.219 12.086c.012 6.672-5.429 12.128-12.1 12.133a12.058 12.058 0 0 1-7.61-2.681 1.171 1.171 0 0 1-.09-1.74l.551-.55a1.174 1.174 0 0 1 1.557-.096 8.948 8.948 0 0 0 5.582 1.942 8.98 8.98 0 0 0 8.985-8.985 8.98 8.98 0 0 0-8.985-8.984 8.953 8.953 0 0 0-6.155 2.438l2.478 2.478a.781.781 0 0 1-.552 1.334H.78A.781.781 0 0 1 0 8.594V1.495A.781.781 0 0 1 1.334.943l2.41 2.41A12.068 12.068 0 0 1 12.11 0c6.68 0 12.097 5.41 12.11 12.086Zm-8.834 3.847.48-.616a1.172 1.172 0 0 0-.206-1.645l-1.987-1.546V7.031c0-.647-.525-1.172-1.172-1.172h-.781c-.647 0-1.172.525-1.172 1.172v6.624l3.194 2.484c.51.397 1.247.305 1.644-.206Z" fill="#F67D0C"/></svg>