<svg width="28" height="23" fill="none" xmlns="http://www.w3.org/2000/svg"><path d="M27.08 19.442H23.61V4.924c0-1.184-.935-2.147-2.083-2.147h-4.861v2.778h4.166V22.22h6.25c.383 0 .694-.31.694-.694v-1.39a.694.694 0 0 0-.694-.694ZM13.55.044 5.219 2.202c-.618.16-1.052.736-1.052 1.397v15.843H.694a.694.694 0 0 0-.694.695v1.389c0 .383.31.694.694.694h14.582V1.44c0-.937-.849-1.624-1.725-1.396Zm-2.093 12.455c-.575 0-1.041-.622-1.041-1.389s.466-1.389 1.041-1.389 1.042.622 1.042 1.389-.467 1.389-1.042 1.389Z" fill="#F67D0C"/></svg>