<svg width="26" height="20" fill="none" xmlns="http://www.w3.org/2000/svg"><path d="m12.17 5.044-8.003 6.59v7.114a.695.695 0 0 0 .695.694l4.863-.012a.695.695 0 0 0 .691-.695v-4.154a.695.695 0 0 1 .695-.694h2.778a.695.695 0 0 1 .694.694v4.151a.694.694 0 0 0 .695.697l4.862.013a.695.695 0 0 0 .694-.694V11.63l-8-6.586a.529.529 0 0 0-.665 0Zm12.64 4.48L21.18 6.532V.52a.521.521 0 0 0-.52-.521H18.23a.521.521 0 0 0-.521.52v3.152L13.823.475a2.083 2.083 0 0 0-2.647 0L.189 9.523a.52.52 0 0 0-.07.734l1.107 1.345a.521.521 0 0 0 .734.071l10.21-8.409a.529.529 0 0 1 .664 0l10.21 8.41a.52.52 0 0 0 .733-.07l1.107-1.346a.522.522 0 0 0-.074-.735Z" fill="#F77D0C"/></svg>